<?xml version="1.0" encoding="UTF-8" standalone="no"?>
<!-- Created with Inkscape (http://www.inkscape.org/) -->

<svg
   xmlns:dc="http://purl.org/dc/elements/1.1/"
   xmlns:cc="http://creativecommons.org/ns#"
   xmlns:rdf="http://www.w3.org/1999/02/22-rdf-syntax-ns#"
   xmlns:svg="http://www.w3.org/2000/svg"
   xmlns="http://www.w3.org/2000/svg"
   xmlns:xlink="http://www.w3.org/1999/xlink"
   xmlns:sodipodi="http://sodipodi.sourceforge.net/DTD/sodipodi-0.dtd"
   xmlns:inkscape="http://www.inkscape.org/namespaces/inkscape"
   width="49.243752mm"
   height="32.045845mm"
   viewBox="0 0 49.243752 32.045845"
   version="1.1"
   id="svg8"
   inkscape:version="0.92.1 r15371"
   sodipodi:docname="blockletter.svg">
  <defs
     id="defs2" />
  <sodipodi:namedview
     id="base"
     pagecolor="#ffffff"
     bordercolor="#666666"
     borderopacity="1.0"
     inkscape:pageopacity="0.0"
     inkscape:pageshadow="2"
     inkscape:zoom="5.6"
     inkscape:cx="82.999777"
     inkscape:cy="54.528689"
     inkscape:document-units="mm"
     inkscape:current-layer="layer1"
     showgrid="true"
     inkscape:window-width="1918"
     inkscape:window-height="1061"
     inkscape:window-x="0"
     inkscape:window-y="0"
     inkscape:window-maximized="0"
     fit-margin-top="2"
     fit-margin-left="2"
     fit-margin-right="2"
     fit-margin-bottom="2">
    <inkscape:grid
       type="xygrid"
       id="grid10"
       originx="-45.492706"
       originy="-130.15938" />
  </sodipodi:namedview>
  <metadata
     id="metadata5">
    <rdf:RDF>
      <cc:Work
         rdf:about="">
        <dc:format>image/svg+xml</dc:format>
        <dc:type
           rdf:resource="http://purl.org/dc/dcmitype/StillImage" />
        <dc:title></dc:title>
      </cc:Work>
    </rdf:RDF>
  </metadata>
  <g
     inkscape:label="Layer 1"
     inkscape:groupmode="layer"
     id="layer1"
     transform="translate(-45.492707,-134.79479)">
    <path
       style="fill:none;fill-rule:evenodd;stroke:#000000;stroke-width:0.26458332px;stroke-linecap:butt;stroke-linejoin:miter;stroke-opacity:1"
       d="m 47.624999,136.92708 v 13.22917 h 5.291667 v -2.64583 h -2.645833 v -10.58334 z"
       id="path12"
       inkscape:connector-curvature="0"
       sodipodi:nodetypes="ccccccc" />
    <path
       style="fill:none;fill-rule:evenodd;stroke:#000000;stroke-width:0.26458332px;stroke-linecap:butt;stroke-linejoin:miter;stroke-opacity:1"
       d="m 54.239583,136.92708 v 13.22917 h 2.645833 v -13.22917 z"
       id="path14"
       inkscape:connector-curvature="0" />
    <path
       style="fill:none;fill-rule:evenodd;stroke:#000000;stroke-width:0.26458332px;stroke-linecap:butt;stroke-linejoin:miter;stroke-opacity:1"
       d="m 58.208333,136.92708 v 13.22917 h 5.291666 v -2.64583 h -2.645833 v -7.9375 h 2.645833 v -2.64584 z"
       id="path16"
       inkscape:connector-curvature="0" />
    <path
       style="fill:none;fill-rule:evenodd;stroke:#000000;stroke-width:0.26458332px;stroke-linecap:butt;stroke-linejoin:miter;stroke-opacity:1"
       d="m 64.822916,136.92708 v 13.22917 h 5.291666 v -2.64583 h -2.645833 v -2.64584 h 2.645833 v -2.64583 h -2.645833 v -2.64583 h 2.645833 v -2.64584 z"
       id="path18"
       inkscape:connector-curvature="0" />
    <path
       style="fill:none;fill-rule:evenodd;stroke:#000000;stroke-width:0.26458332px;stroke-linecap:butt;stroke-linejoin:miter;stroke-opacity:1"
       d="m 79.374999,150.15625 h -2.645833 l -2e-6,-2.64586 -2.645834,-2.64583 2e-6,5.29169 h -2.645833 v -13.22917 h 2.645833 l -2e-6,3.96873 2.645834,2.64584 2e-6,-6.61457 h 2.645833 z"
       id="path20"
       inkscape:connector-curvature="0"
       sodipodi:nodetypes="ccccccccccccc" />
    <path
       style="fill:none;fill-rule:evenodd;stroke:#000000;stroke-width:0.26458332px;stroke-linecap:butt;stroke-linejoin:miter;stroke-opacity:1"
       d="m 47.624999,151.47917 h 10.583334 l 10e-7,2.64585 -7.9375,7.9375 7.937499,-2e-5 v 2.64583 H 47.624999 l 10e-7,-5.29166 5.291666,-5.29167 h -5.291667 z"
       id="path26"
       inkscape:connector-curvature="0"
       sodipodi:nodetypes="ccccccccccc" />
    <path
       inkscape:connector-curvature="0"
       id="use30"
       d="m 59.53125,151.47917 v 13.22917 l 7.937501,1e-5 v -2.64583 l -5.291668,-1e-5 v -2.64584 l 5.291668,1e-5 v -2.64583 l -5.291668,-1e-5 v -2.64583 l 5.291668,1e-5 v -2.64584 z"
       style="fill:none;fill-rule:evenodd;stroke:#000000;stroke-width:0.26458332px;stroke-linecap:butt;stroke-linejoin:miter;stroke-opacity:1"
       sodipodi:nodetypes="ccccccccccccc" />
    <use
       x="0"
       y="0"
       xlink:href="#path16"
       id="use32"
       transform="translate(22.489584,-3.3333333e-6)"
       width="100%"
       height="100%" />
    <use
       x="0"
       y="0"
       xlink:href="#path18"
       id="use34"
       transform="translate(22.489584)"
       width="100%"
       height="100%" />
    <path
       style="fill:none;fill-rule:evenodd;stroke:#000000;stroke-width:0.26458332px;stroke-linecap:butt;stroke-linejoin:miter;stroke-opacity:1"
       d="m 68.791668,151.47918 v 13.22916 h 2.645833 v -3.96875 l 3.96875,3.96875 h 3.96875 l -5.291667,-5.29166 5.291667,-5.29167 v -2.64583 z m 2.645833,2.64583 h 3.96875 l -3.96875,3.96875 z"
       id="path36"
       inkscape:connector-curvature="0"
       sodipodi:nodetypes="cccccccccccccc" />
    <path
       style="fill:none;fill-rule:evenodd;stroke:#000000;stroke-width:0.26458332px;stroke-linecap:butt;stroke-linejoin:miter;stroke-opacity:1"
       d="m 80.697918,151.47919 v 13.22916 l 11.906249,-2e-5 v -13.22916 z m 2.645833,2.64583 6.614582,-2e-5 v 7.9375 l -6.614582,2e-5 z"
       id="path38"
       inkscape:connector-curvature="0"
       sodipodi:nodetypes="cccccccccc" />
  </g>
</svg>
